# xmcd CD database file
#
# Track frame offsets:
#	150
#	12180
#	29552
#	48037
#	76040
#	90910
#	103365
#	128612
#	142382
#	147450
#	161865
#	186492
#	211767
#	227882
#	241682
#	261592
#	277170
#	296542
#	311605
#	322130
#
# Disc length: 4445 seconds
#
# Revision: 0
# Processed by: cddbd v1.5.1PL0 Copyright (c) Steve Scherf et al.
# Submitted via: CDex 1.51
#
DISCID=2e115b14
DTITLE=石田勝範 - ビーロボ　カブタック　ミュージックコレクション2
DYEAR=1900
DGENRE=サウンドトラック (テレビ)
TTITLE0=ああ、スターピース(INSTRUMENTAL 2コーラス VERSION)
TTITLE1=おさんぽ、ビーロボ三悪
TTITLE2=暴れるのはおやめなさい
TTITLE3=スターピースだカブ
TTITLE4=そのころ朝日小学校では……
TTITLE5=恋しちゃった譲
TTITLE6=愛、哀……そして涙
TTITLE7=おじいちゃんが残したもの
TTITLE8=カブタック、はやく来て
TTITLE9=大追跡!~スターピースを追いかけろ~(INSTRUMENTAL VERSION)
TTITLE10=男はだまって……ダンディズム
TTITLE11=わたしにまかせて
TTITLE12=この勝負、私があずかる
TTITLE13=さばきの雷~キャプテントンボーグのテーマ~(INSTRUMENTAL 1.5コーラス VERSION)
TTITLE14=問答無用の亜空間
TTITLE15=ざまぁみろ!本領発揮だ
TTITLE16=スーパーチェンジ!カブタック(INSTRUMENTAL VERSION)
TTITLE17=ビーロボの一番星!!
TTITLE18=2対1で、カブタックチームの勝ち!
TTITLE19=カブタック音頭(INSTRUMENTAL VERSION)
EXTD=
EXTT0=
EXTT1=
EXTT2=
EXTT3=
EXTT4=
EXTT5=
EXTT6=
EXTT7=
EXTT8=
EXTT9=
EXTT10=
EXTT11=
EXTT12=
EXTT13=
EXTT14=
EXTT15=
EXTT16=
EXTT17=
EXTT18=
EXTT19=
PLAYORDER=
